<svg height="2798" width="720" xmlns="http://www.w3.org/2000/svg">
<rect height="2798" fill="#555" width="720"></rect>
<text fill="#7f7" font-family="Courier New" font-size="12" xml:space="preserve">
<tspan x="10" y="26">19 megabytes installed</tspan>
<tspan x="10" y="42"></tspan>
<tspan x="10" y="58">node_modules</tspan>
<tspan x="10" y="74">└─┬ avrgirl-arduino@2.0.0 </tspan>
<tspan x="10" y="90">  ├─┬ async@2.3.0 </tspan>
<tspan x="10" y="106">  │ └── lodash@4.17.4 </tspan>
<tspan x="10" y="122">  ├─┬ awty@0.1.0 </tspan>
<tspan x="10" y="138">  │ └── isval@0.0.2 </tspan>
<tspan x="10" y="154">  ├── browser-serialport@2.0.3  (git+https://github.com/noopkat/browser-serialport.git#a1cecbee1\</tspan>
<tspan x="10" y="170">276bfe78b0491f8d13544c70859ff36)</tspan>
<tspan x="10" y="186">  ├── chip.avr.avr109@1.1.0 </tspan>
<tspan x="10" y="202">  ├── colors@1.1.2 </tspan>
<tspan x="10" y="218">  ├── graceful-fs@4.1.11 </tspan>
<tspan x="10" y="234">  ├── intel-hex@0.1.1 </tspan>
<tspan x="10" y="250">  ├── minimist@1.2.0 </tspan>
<tspan x="10" y="266">  ├─┬ serialport@4.0.7 </tspan>
<tspan x="10" y="282">  │ ├── bindings@1.2.1 </tspan>
<tspan x="10" y="298">  │ ├─┬ commander@2.9.0 </tspan>
<tspan x="10" y="314">  │ │ └── graceful-readlink@1.0.1 </tspan>
<tspan x="10" y="330">  │ ├─┬ debug@2.6.4 </tspan>
<tspan x="10" y="346">  │ │ └── ms@0.7.3 </tspan>
<tspan x="10" y="362">  │ ├─┬ lie@3.1.1 </tspan>
<tspan x="10" y="378">  │ │ └── immediate@3.0.6 </tspan>
<tspan x="10" y="394">  │ ├── nan@2.6.2 </tspan>
<tspan x="10" y="410">  │ ├─┬ node-pre-gyp@0.6.32 </tspan>
<tspan x="10" y="426">  │ │ ├─┬ mkdirp@0.5.1 </tspan>
<tspan x="10" y="442">  │ │ │ └── minimist@0.0.8 </tspan>
<tspan x="10" y="458">  │ │ ├─┬ nopt@3.0.6 </tspan>
<tspan x="10" y="474">  │ │ │ └── abbrev@1.0.9 </tspan>
<tspan x="10" y="490">  │ │ ├─┬ npmlog@4.0.1 </tspan>
<tspan x="10" y="506">  │ │ │ ├─┬ are-we-there-yet@1.1.2 </tspan>
<tspan x="10" y="522">  │ │ │ │ ├── delegates@1.0.0 </tspan>
<tspan x="10" y="538">  │ │ │ │ └─┬ readable-stream@2.2.2 </tspan>
<tspan x="10" y="554">  │ │ │ │   ├── buffer-shims@1.0.0 </tspan>
<tspan x="10" y="570">  │ │ │ │   ├── core-util-is@1.0.2 </tspan>
<tspan x="10" y="586">  │ │ │ │   ├── inherits@2.0.3 </tspan>
<tspan x="10" y="602">  │ │ │ │   ├── isarray@1.0.0 </tspan>
<tspan x="10" y="618">  │ │ │ │   ├── process-nextick-args@1.0.7 </tspan>
<tspan x="10" y="634">  │ │ │ │   ├── string_decoder@0.10.31 </tspan>
<tspan x="10" y="650">  │ │ │ │   └── util-deprecate@1.0.2 </tspan>
<tspan x="10" y="666">  │ │ │ ├── console-control-strings@1.1.0 </tspan>
<tspan x="10" y="682">  │ │ │ ├─┬ gauge@2.7.2 </tspan>
<tspan x="10" y="698">  │ │ │ │ ├── aproba@1.0.4 </tspan>
<tspan x="10" y="714">  │ │ │ │ ├── has-unicode@2.0.1 </tspan>
<tspan x="10" y="730">  │ │ │ │ ├── object-assign@4.1.0 </tspan>
<tspan x="10" y="746">  │ │ │ │ ├── signal-exit@3.0.2 </tspan>
<tspan x="10" y="762">  │ │ │ │ ├─┬ string-width@1.0.2 </tspan>
<tspan x="10" y="778">  │ │ │ │ │ ├── code-point-at@1.1.0 </tspan>
<tspan x="10" y="794">  │ │ │ │ │ └─┬ is-fullwidth-code-point@1.0.0 </tspan>
<tspan x="10" y="810">  │ │ │ │ │   └── number-is-nan@1.0.1 </tspan>
<tspan x="10" y="826">  │ │ │ │ ├─┬ strip-ansi@3.0.1 </tspan>
<tspan x="10" y="842">  │ │ │ │ │ └── ansi-regex@2.0.0 </tspan>
<tspan x="10" y="858">  │ │ │ │ ├── supports-color@0.2.0 </tspan>
<tspan x="10" y="874">  │ │ │ │ └── wide-align@1.1.0 </tspan>
<tspan x="10" y="890">  │ │ │ └── set-blocking@2.0.0 </tspan>
<tspan x="10" y="906">  │ │ ├─┬ rc@1.1.6 </tspan>
<tspan x="10" y="922">  │ │ │ ├── deep-extend@0.4.1 </tspan>
<tspan x="10" y="938">  │ │ │ ├── ini@1.3.4 </tspan>
<tspan x="10" y="954">  │ │ │ ├── minimist@1.2.0 </tspan>
<tspan x="10" y="970">  │ │ │ └── strip-json-comments@1.0.4 </tspan>
<tspan x="10" y="986">  │ │ ├─┬ request@2.79.0 </tspan>
<tspan x="10" y="1002">  │ │ │ ├── aws-sign2@0.6.0 </tspan>
<tspan x="10" y="1018">  │ │ │ ├── aws4@1.5.0 </tspan>
<tspan x="10" y="1034">  │ │ │ ├── caseless@0.11.0 </tspan>
<tspan x="10" y="1050">  │ │ │ ├─┬ combined-stream@1.0.5 </tspan>
<tspan x="10" y="1066">  │ │ │ │ └── delayed-stream@1.0.0 </tspan>
<tspan x="10" y="1082">  │ │ │ ├── extend@3.0.0 </tspan>
<tspan x="10" y="1098">  │ │ │ ├── forever-agent@0.6.1 </tspan>
<tspan x="10" y="1114">  │ │ │ ├─┬ form-data@2.1.2 </tspan>
<tspan x="10" y="1130">  │ │ │ │ └── asynckit@0.4.0 </tspan>
<tspan x="10" y="1146">  │ │ │ ├─┬ har-validator@2.0.6 </tspan>
<tspan x="10" y="1162">  │ │ │ │ ├─┬ chalk@1.1.3 </tspan>
<tspan x="10" y="1178">  │ │ │ │ │ ├── ansi-styles@2.2.1 </tspan>
<tspan x="10" y="1194">  │ │ │ │ │ ├── escape-string-regexp@1.0.5 </tspan>
<tspan x="10" y="1210">  │ │ │ │ │ ├─┬ has-ansi@2.0.0 </tspan>
<tspan x="10" y="1226">  │ │ │ │ │ │ └── ansi-regex@2.0.0 </tspan>
<tspan x="10" y="1242">  │ │ │ │ │ ├─┬ strip-ansi@3.0.1 </tspan>
<tspan x="10" y="1258">  │ │ │ │ │ │ └── ansi-regex@2.0.0 </tspan>
<tspan x="10" y="1274">  │ │ │ │ │ └── supports-color@2.0.0 </tspan>
<tspan x="10" y="1290">  │ │ │ │ ├─┬ is-my-json-valid@2.15.0 </tspan>
<tspan x="10" y="1306">  │ │ │ │ │ ├── generate-function@2.0.0 </tspan>
<tspan x="10" y="1322">  │ │ │ │ │ ├─┬ generate-object-property@1.2.0 </tspan>
<tspan x="10" y="1338">  │ │ │ │ │ │ └── is-property@1.0.2 </tspan>
<tspan x="10" y="1354">  │ │ │ │ │ ├── jsonpointer@4.0.0 </tspan>
<tspan x="10" y="1370">  │ │ │ │ │ └── xtend@4.0.1 </tspan>
<tspan x="10" y="1386">  │ │ │ │ └─┬ pinkie-promise@2.0.1 </tspan>
<tspan x="10" y="1402">  │ │ │ │   └── pinkie@2.0.4 </tspan>
<tspan x="10" y="1418">  │ │ │ ├─┬ hawk@3.1.3 </tspan>
<tspan x="10" y="1434">  │ │ │ │ ├── boom@2.10.1 </tspan>
<tspan x="10" y="1450">  │ │ │ │ ├── cryptiles@2.0.5 </tspan>
<tspan x="10" y="1466">  │ │ │ │ ├── hoek@2.16.3 </tspan>
<tspan x="10" y="1482">  │ │ │ │ └── sntp@1.0.9 </tspan>
<tspan x="10" y="1498">  │ │ │ ├─┬ http-signature@1.1.1 </tspan>
<tspan x="10" y="1514">  │ │ │ │ ├── assert-plus@0.2.0 </tspan>
<tspan x="10" y="1530">  │ │ │ │ ├─┬ jsprim@1.3.1 </tspan>
<tspan x="10" y="1546">  │ │ │ │ │ ├── extsprintf@1.0.2 </tspan>
<tspan x="10" y="1562">  │ │ │ │ │ ├── json-schema@0.2.3 </tspan>
<tspan x="10" y="1578">  │ │ │ │ │ └── verror@1.3.6 </tspan>
<tspan x="10" y="1594">  │ │ │ │ └─┬ sshpk@1.10.1 </tspan>
<tspan x="10" y="1610">  │ │ │ │   ├── asn1@0.2.3 </tspan>
<tspan x="10" y="1626">  │ │ │ │   ├── assert-plus@1.0.0 </tspan>
<tspan x="10" y="1642">  │ │ │ │   ├── bcrypt-pbkdf@1.0.0 </tspan>
<tspan x="10" y="1658">  │ │ │ │   ├── dashdash@1.14.1 </tspan>
<tspan x="10" y="1674">  │ │ │ │   ├── ecc-jsbn@0.1.1 </tspan>
<tspan x="10" y="1690">  │ │ │ │   ├── getpass@0.1.6 </tspan>
<tspan x="10" y="1706">  │ │ │ │   ├── jodid25519@1.0.2 </tspan>
<tspan x="10" y="1722">  │ │ │ │   ├── jsbn@0.1.0 </tspan>
<tspan x="10" y="1738">  │ │ │ │   └── tweetnacl@0.14.4 </tspan>
<tspan x="10" y="1754">  │ │ │ ├── is-typedarray@1.0.0 </tspan>
<tspan x="10" y="1770">  │ │ │ ├── isstream@0.1.2 </tspan>
<tspan x="10" y="1786">  │ │ │ ├── json-stringify-safe@5.0.1 </tspan>
<tspan x="10" y="1802">  │ │ │ ├─┬ mime-types@2.1.13 </tspan>
<tspan x="10" y="1818">  │ │ │ │ └── mime-db@1.25.0 </tspan>
<tspan x="10" y="1834">  │ │ │ ├── oauth-sign@0.8.2 </tspan>
<tspan x="10" y="1850">  │ │ │ ├── qs@6.3.0 </tspan>
<tspan x="10" y="1866">  │ │ │ ├── stringstream@0.0.5 </tspan>
<tspan x="10" y="1882">  │ │ │ ├─┬ tough-cookie@2.3.2 </tspan>
<tspan x="10" y="1898">  │ │ │ │ └── punycode@1.4.1 </tspan>
<tspan x="10" y="1914">  │ │ │ ├── tunnel-agent@0.4.3 </tspan>
<tspan x="10" y="1930">  │ │ │ └── uuid@3.0.1 </tspan>
<tspan x="10" y="1946">  │ │ ├─┬ rimraf@2.5.4 </tspan>
<tspan x="10" y="1962">  │ │ │ └─┬ glob@7.1.1 </tspan>
<tspan x="10" y="1978">  │ │ │   ├── fs.realpath@1.0.0 </tspan>
<tspan x="10" y="1994">  │ │ │   ├─┬ inflight@1.0.6 </tspan>
<tspan x="10" y="2010">  │ │ │   │ └── wrappy@1.0.2 </tspan>
<tspan x="10" y="2026">  │ │ │   ├── inherits@2.0.3 </tspan>
<tspan x="10" y="2042">  │ │ │   ├─┬ minimatch@3.0.3 </tspan>
<tspan x="10" y="2058">  │ │ │   │ └─┬ brace-expansion@1.1.6 </tspan>
<tspan x="10" y="2074">  │ │ │   │   ├── balanced-match@0.4.2 </tspan>
<tspan x="10" y="2090">  │ │ │   │   └── concat-map@0.0.1 </tspan>
<tspan x="10" y="2106">  │ │ │   ├─┬ once@1.4.0 </tspan>
<tspan x="10" y="2122">  │ │ │   │ └── wrappy@1.0.2 </tspan>
<tspan x="10" y="2138">  │ │ │   └── path-is-absolute@1.0.1 </tspan>
<tspan x="10" y="2154">  │ │ ├── semver@5.3.0 </tspan>
<tspan x="10" y="2170">  │ │ ├─┬ tar@2.2.1 </tspan>
<tspan x="10" y="2186">  │ │ │ ├── block-stream@0.0.9 </tspan>
<tspan x="10" y="2202">  │ │ │ ├─┬ fstream@1.0.10 </tspan>
<tspan x="10" y="2218">  │ │ │ │ └── graceful-fs@4.1.11 </tspan>
<tspan x="10" y="2234">  │ │ │ └── inherits@2.0.3 </tspan>
<tspan x="10" y="2250">  │ │ └─┬ tar-pack@3.3.0 </tspan>
<tspan x="10" y="2266">  │ │   ├─┬ debug@2.2.0 </tspan>
<tspan x="10" y="2282">  │ │   │ └── ms@0.7.1 </tspan>
<tspan x="10" y="2298">  │ │   ├─┬ fstream@1.0.10 </tspan>
<tspan x="10" y="2314">  │ │   │ ├── graceful-fs@4.1.11 </tspan>
<tspan x="10" y="2330">  │ │   │ └── inherits@2.0.3 </tspan>
<tspan x="10" y="2346">  │ │   ├─┬ fstream-ignore@1.0.5 </tspan>
<tspan x="10" y="2362">  │ │   │ ├── inherits@2.0.3 </tspan>
<tspan x="10" y="2378">  │ │   │ └─┬ minimatch@3.0.3 </tspan>
<tspan x="10" y="2394">  │ │   │   └─┬ brace-expansion@1.1.6 </tspan>
<tspan x="10" y="2410">  │ │   │     ├── balanced-match@0.4.2 </tspan>
<tspan x="10" y="2426">  │ │   │     └── concat-map@0.0.1 </tspan>
<tspan x="10" y="2442">  │ │   ├─┬ once@1.3.3 </tspan>
<tspan x="10" y="2458">  │ │   │ └── wrappy@1.0.2 </tspan>
<tspan x="10" y="2474">  │ │   ├─┬ readable-stream@2.1.5 </tspan>
<tspan x="10" y="2490">  │ │   │ ├── buffer-shims@1.0.0 </tspan>
<tspan x="10" y="2506">  │ │   │ ├── core-util-is@1.0.2 </tspan>
<tspan x="10" y="2522">  │ │   │ ├── inherits@2.0.3 </tspan>
<tspan x="10" y="2538">  │ │   │ ├── isarray@1.0.0 </tspan>
<tspan x="10" y="2554">  │ │   │ ├── process-nextick-args@1.0.7 </tspan>
<tspan x="10" y="2570">  │ │   │ ├── string_decoder@0.10.31 </tspan>
<tspan x="10" y="2586">  │ │   │ └── util-deprecate@1.0.2 </tspan>
<tspan x="10" y="2602">  │ │   └── uid-number@0.0.6 </tspan>
<tspan x="10" y="2618">  │ └─┬ object.assign@4.0.4 </tspan>
<tspan x="10" y="2634">  │   ├─┬ define-properties@1.1.2 </tspan>
<tspan x="10" y="2650">  │   │ └── foreach@2.0.5 </tspan>
<tspan x="10" y="2666">  │   ├── function-bind@1.1.0 </tspan>
<tspan x="10" y="2682">  │   └── object-keys@1.0.11 </tspan>
<tspan x="10" y="2698">  ├─┬ stk500@1.0.4  (git+https://github.com/noopkat/js-stk500v1.git#05c43687b3faaad8f54ef53bc7e9\</tspan>
<tspan x="10" y="2714">7d5f0fe45f76)</tspan>
<tspan x="10" y="2730">  │ ├── async@0.9.2 </tspan>
<tspan x="10" y="2746">  │ └── buffer-equal@0.0.1 </tspan>
<tspan x="10" y="2762">  └─┬ stk500-v2@1.0.2 </tspan>
<tspan x="10" y="2778">    └── async@0.9.2</tspan>
</text>
</svg>
